<svg width="172" height="44" viewBox="0 0 172 44" fill="none" xmlns="http://www.w3.org/2000/svg">
<g clip-path="url(#clip0)">
<path d="M39.6252 18.4205L33.8128 14.9616C33.8128 14.9616 33.3216 13.6746 32.5029 12.3071C32.9122 11.5832 33.2397 10.7788 33.2397 9.81354C33.2397 8.2852 32.2573 6.59599 31.3568 4.90677C30.8656 4.02195 30.3744 3.21756 30.1288 2.41317C29.9651 1.76966 29.8013 1.04571 29.8013 0.64352C29.8013 0.241326 29.8832 -0.0804294 29.4739 -0.0804294C28.9827 -0.160868 28.0822 0.804397 27.6728 2.49361C27.591 2.81537 27.5091 3.21756 27.5091 3.70019C27.5091 4.42414 27.6728 5.22853 27.8366 6.19379C27.9184 6.51555 27.9184 6.75687 28.0003 7.07862C24.2345 3.37844 20.0593 1.76966 20.0593 1.76966V4.02195C16.7028 3.21756 13.9194 4.02195 13.9194 4.02195L15.4748 5.55028C14.2468 5.95248 12.8551 6.67643 12.1183 7.2395C12.2002 6.8373 12.2002 6.51555 12.2821 6.11336C12.4458 5.22853 12.6095 4.42414 12.6095 3.61975C12.6095 3.05668 12.5277 2.65449 12.4458 2.41317C12.0365 0.723958 11.1359 -0.241307 10.6447 -0.160868C10.3173 -0.0804294 10.3173 0.160887 10.3173 0.563081C10.3173 0.965274 10.2354 1.52835 9.98981 2.17186C9.74422 2.97624 9.25302 3.86107 8.67996 4.82634C7.69757 6.43511 6.79705 8.12432 6.79705 9.7331C6.79705 10.6179 7.04265 11.5028 7.45198 12.1463C6.63332 13.4333 6.14212 14.8007 6.14212 14.8007L0.329652 18.2596C-0.0796766 18.5009 0.084055 19.064 0.57525 19.064H4.91414C4.91414 19.064 4.01361 23.0859 5.15973 28.234C5.56906 27.2687 6.22399 26.4644 7.04265 25.8209C6.96078 26.3839 7.04265 27.2687 7.04265 27.9123C7.04265 31.532 9.49862 35.0713 9.49862 37.2432C10.3173 36.5996 10.9722 35.7953 11.3815 34.83C13.4282 38.6106 16.2935 41.7477 20.1412 43.8391V39.3346C21.1236 40.139 21.9422 41.1847 22.5153 42.3108C25.3806 40.2998 27.3454 37.8062 28.9827 34.83C29.392 35.7953 30.0469 36.5996 30.8656 37.2432C30.8656 35.0713 33.2397 31.532 33.2397 27.9123C33.2397 27.2687 33.2397 26.3839 33.2397 25.8209C34.6314 27.0274 35.0407 28.0731 35.1226 28.234C36.1869 23.649 35.3682 19.064 35.3682 19.064H39.7071C39.789 19.2249 39.9527 18.6618 39.6252 18.4205ZM19.8956 33.8647H18.0127C15.8842 33.8647 14.165 32.1755 14.165 30.0841C14.165 29.521 14.2468 29.0384 14.4924 28.5558L13.51 22.9251C12.5277 22.1207 11.8727 20.8336 11.8727 19.4662V15.6856C11.8727 16.8921 10.8903 17.9379 9.58049 17.9379H3.03122L10.6447 13.4333C9.66235 13.4333 7.77944 11.8245 7.77944 9.7331C7.77944 7.48081 10.7266 4.10239 10.9722 2.41317V2.25229C10.9722 2.33273 11.2178 2.65449 11.2178 3.70019C11.2178 4.82634 10.8085 6.51555 10.6447 7.96345C10.481 9.41134 11.5453 10.5375 13.8375 11.1006C16.1297 11.7441 19.8137 11.8245 19.8137 11.8245V33.8647H19.8956ZM24.2345 30.9689C23.907 31.2907 23.4977 31.8538 23.2521 32.4168C23.2521 32.4168 22.7609 31.9342 23.0065 31.1298C23.2521 30.3254 23.6614 30.0037 23.9889 30.0037C24.3982 29.9232 24.6438 30.6472 24.2345 30.9689ZM24.8075 22.5229C23.6614 22.8446 22.9246 22.0402 22.9246 22.0402L26.7723 19.5466C26.8542 20.6728 26.0355 22.2011 24.8075 22.5229Z" fill="black"/>
<path d="M15.8026 29.9233C15.4751 29.9233 15.2295 30.5669 15.557 30.969C15.8844 31.2908 16.2938 31.8539 16.5394 32.4169C16.5394 32.4169 17.0306 31.9343 16.785 31.1299C16.4575 30.3255 16.13 29.9233 15.8026 29.9233Z" fill="black"/>
<path d="M14.9817 22.5226C16.1278 22.8444 16.8646 22.04 16.8646 22.04L13.0169 19.5464C12.935 20.6725 13.8355 22.2009 14.9817 22.5226Z" fill="black"/>
<path d="M167.171 16.4901C167.171 15.2835 168.154 14.2378 169.463 14.2378C170.691 14.2378 171.756 15.203 171.756 16.4901C171.756 17.6966 170.773 18.7423 169.463 18.7423C168.154 18.7423 167.171 17.7771 167.171 16.4901ZM166.844 16.4901C166.844 17.938 167.99 19.0641 169.463 19.0641C170.937 19.0641 172.083 17.938 172.083 16.4901C172.083 15.0422 170.937 13.916 169.463 13.916C167.99 13.9965 166.844 15.1226 166.844 16.4901Z" fill="black"/>
<path d="M168.644 18.0185V16.651H169.135C169.217 16.651 169.299 16.651 169.381 16.651C169.463 16.651 169.544 16.7314 169.544 16.7314C169.626 16.7314 169.708 16.8119 169.79 16.8923C169.872 16.9728 169.954 17.1336 170.036 17.2945L170.445 17.938H170.936L170.445 17.1336C170.363 16.9728 170.199 16.8119 170.117 16.7314C170.036 16.651 169.954 16.651 169.872 16.5706C170.199 16.5706 170.363 16.4097 170.527 16.3292C170.691 16.1684 170.772 16.0075 170.772 15.7662C170.772 15.6053 170.772 15.4444 170.609 15.2835C170.527 15.1227 170.445 15.0422 170.281 14.9618C170.117 14.8813 169.954 14.8813 169.626 14.8813H168.316V17.8576H168.644V18.0185ZM168.644 15.364H169.626C169.872 15.364 170.036 15.4444 170.117 15.5249C170.199 15.6053 170.281 15.7662 170.281 15.8466C170.281 15.9271 170.281 16.0075 170.199 16.0879C170.117 16.1684 170.036 16.2488 169.954 16.2488C169.872 16.2488 169.708 16.3292 169.544 16.3292H168.644V15.364Z" fill="black"/>
<path d="M112.156 21.3966L117.969 14.0767H112.975L107.326 21.2357V14.0767H102.496V29.7622H107.326V22.3619L112.566 29.7622H118.214L112.156 21.3966Z" fill="black"/>
<path d="M97.0135 26.6253C93.9026 26.1426 93.0021 23.5686 93.0021 22.0403C93.0021 20.5119 93.8208 17.9379 97.0135 17.4553C99.0602 17.1335 101.025 18.3401 101.189 18.3401V14.9617C100.206 14.479 98.6509 13.8355 95.8674 13.9964C93.2477 14.1573 88.2539 15.6052 88.2539 22.0403V22.1207C88.4995 28.5558 92.9203 29.9233 95.8674 30.0841C98.569 30.245 100.206 29.5211 101.189 29.1189V25.7404C101.025 25.7404 99.0602 26.947 97.0135 26.6253Z" fill="black"/>
<path d="M131.394 14.1572L128.038 19.3053L124.681 14.1572H119.77L125.5 23.1664V29.7623H125.746H130.33H130.576V23.1664L136.225 14.1572H131.394Z" fill="black"/>
<path d="M150.797 14.0767H155.545V21.2357L161.276 14.0767H166.188L160.457 21.3966L166.433 29.7622H160.784L155.545 22.3619V29.7622H150.797V14.0767Z" fill="black"/>
<path d="M52.4768 26.9469H49.6934V23.1662H52.4768C53.541 23.1662 54.3597 24.0511 54.3597 25.0163C54.3597 26.1425 53.541 26.9469 52.4768 26.9469ZM49.6934 16.892H52.2312C53.2136 16.892 54.0322 17.6964 54.0322 18.6617C54.0322 19.6269 53.2136 20.4313 52.2312 20.4313H49.6934V16.892ZM55.997 21.2357L55.8333 21.1553L55.997 21.0748C57.4706 20.3509 58.1255 19.3052 58.1255 17.8573C58.1255 16.9725 57.7981 14.0767 53.5411 14.0767H44.8633V29.7622H54.6872C57.1431 29.7622 58.9442 27.9121 58.9442 25.3381C58.9442 23.3271 58.0437 22.0401 55.997 21.2357Z" fill="black"/>
<path d="M78.1007 14.0767H83.1764L89.5619 29.7622H84.8956L80.7204 18.9834C80.6385 18.8225 80.5567 18.903 80.5567 18.9834L76.4634 29.7622H71.8789L78.1007 14.0767Z" fill="black"/>
<path d="M138.683 14.0767H143.758L150.144 29.7622H145.477L141.302 18.9834C141.22 18.8225 141.139 18.903 141.139 18.9834L136.963 29.7622H132.379L138.683 14.0767Z" fill="black"/>
<path d="M71.2231 26.3838H64.6738V14.0767H59.8438V29.7622H71.2231V26.3838Z" fill="black"/>
</g>
<defs>
<clipPath id="clip0">
<rect width="172" height="44" fill="white"/>
</clipPath>
</defs>
</svg>
